<svg xmlns="http://www.w3.org/2000/svg" width="537" height="465" viewBox="0 0 537 465" version="1.1"><path d="M 270.295 99.014 C 267.202 100.260, 261.491 108.424, 258.901 115.304 L 256.716 121.108 251.108 120.304 C 237.846 118.402, 229.940 120.507, 227.386 126.619 C 225.889 130.202, 226.342 136.475, 228.180 137.611 C 229.779 138.599, 229.992 137.554, 228.956 133.803 C 226.450 124.727, 234.203 120.058, 248.440 122.067 C 252.257 122.606, 255.555 123.222, 255.770 123.436 C 255.984 123.651, 255.580 127.277, 254.871 131.494 C 253.618 138.951, 253.446 139.271, 248.604 143.126 C 245.865 145.307, 242.996 147.989, 242.227 149.086 C 241.269 150.455, 240.198 150.880, 238.816 150.442 C 237.165 149.918, 236.913 150.150, 237.415 151.733 C 237.811 152.981, 237.319 154.306, 236.026 155.477 C 232.709 158.479, 227.844 166.750, 226.885 171.018 C 225.684 176.361, 227.739 181.297, 232.104 183.554 C 235.781 185.455, 243.932 185.913, 251.746 184.657 C 256.386 183.911, 257.061 184.026, 257.594 185.657 C 261.300 196.983, 268.609 206, 274.084 206 C 277.860 206, 282.607 203.602, 284.006 200.990 C 285.418 198.351, 284.547 198.481, 280.589 201.500 C 276.146 204.889, 271.656 204.797, 268.313 201.250 C 265.339 198.095, 258.431 184.236, 259.365 183.301 C 259.708 182.959, 262.964 181.486, 266.601 180.030 L 273.214 177.381 281.591 180.440 C 286.198 182.123, 289.974 184.063, 289.984 184.750 C 290.003 186.232, 291.688 186.433, 292.167 185.011 C 292.386 184.359, 294.550 184.365, 298.500 185.028 C 308.468 186.699, 317.171 184.310, 319.043 179.387 C 321.352 173.313, 319.487 166.142, 313.557 158.299 L 309.185 152.516 311.149 150.008 C 318.568 140.529, 321.001 133.835, 319.504 127.019 C 318.742 123.548, 314.075 120.010, 310.250 120.004 C 306.753 119.998, 307.602 121.703, 311.457 122.426 C 316.525 123.377, 319.352 127.398, 318.537 132.497 C 317.847 136.809, 314.717 142.573, 310.276 147.711 L 307.500 150.922 301.307 145.824 L 295.113 140.725 294.321 132.612 C 293.886 128.151, 293.630 123.713, 293.753 122.750 C 293.876 121.787, 293.532 121, 292.988 121 C 292.445 121, 292 120.438, 291.999 119.750 C 291.998 117.629, 285.984 105.633, 283.680 103.155 C 279.408 98.560, 274.893 97.163, 270.295 99.014 M 269.214 102.473 C 265.978 105.197, 260.226 115.724, 259.761 119.777 C 259.541 121.694, 260.449 122.458, 265.500 124.604 C 268.800 126.006, 271.950 127.229, 272.500 127.321 C 273.050 127.414, 277.230 126.142, 281.788 124.495 C 289.593 121.674, 290.042 121.354, 289.492 119 C 288.435 114.478, 284.119 106.488, 281.248 103.737 C 276.992 99.660, 273.050 99.246, 269.214 102.473 M 296.655 116.829 C 293.583 120.223, 295.141 125.098, 299.733 126.461 C 302.878 127.395, 307.395 122.878, 306.461 119.733 C 305.072 115.054, 299.701 113.463, 296.655 116.829 M 257.061 130.097 C 256.401 133.451, 256.077 136.410, 256.341 136.674 C 256.924 137.258, 270 129.840, 270 128.926 C 270 128.417, 259.724 124, 258.541 124 C 258.387 124, 257.720 126.744, 257.061 130.097 M 282.750 126.162 C 279.587 127.265, 277.005 128.467, 277.011 128.833 C 277.019 129.344, 289.682 137.173, 293.106 138.785 C 293.690 139.060, 292.652 130.889, 291.514 126.250 C 290.856 123.568, 290.210 123.562, 282.750 126.162 M 265 134.614 C 260.875 137.122, 256.938 139.896, 256.250 140.778 C 254.945 142.453, 254.493 158.507, 255.631 162.754 C 256.022 164.211, 259.184 166.789, 264.572 170.044 L 272.909 175.080 278.205 172.403 C 281.117 170.931, 285.863 168.219, 288.750 166.376 L 294 163.025 294 152.543 L 294 142.061 288.533 138.564 C 283.668 135.452, 273.529 129.956, 272.783 130.027 C 272.627 130.042, 269.125 132.106, 265 134.614 M 229 140 C 227.900 141.100, 227 142.900, 227 144 C 227 145.100, 227.900 146.900, 229 148 C 230.100 149.100, 231.900 150, 233 150 C 235.545 150, 239 146.586, 239 144.073 C 239 142.008, 234.621 138, 232.365 138 C 231.614 138, 230.100 138.900, 229 140 M 246.750 147.139 C 244.137 149.377, 242 151.794, 242 152.511 C 242 153.731, 251.053 162, 252.389 162 C 252.725 162, 253 157.725, 253 152.500 C 253 147.275, 252.662 143.016, 252.250 143.035 C 251.838 143.054, 249.363 144.901, 246.750 147.139 M 268.040 145.806 C 264.557 149.289, 264.085 153.218, 266.692 157.027 C 269.016 160.424, 269.991 160.967, 273.795 160.985 C 284.232 161.033, 284.672 145.374, 274.290 143.382 C 271.606 142.867, 270.582 143.264, 268.040 145.806 M 296 153.050 L 296 161.100 300.500 157.338 C 302.975 155.269, 305 153.072, 305 152.456 C 305 151.398, 297.756 145, 296.559 145 C 296.251 145, 296 148.622, 296 153.050 M 236.730 157.483 C 229.261 166.483, 226.632 175.726, 230.368 179.855 C 233.142 182.919, 240.873 184.218, 248.801 182.952 C 252.454 182.368, 255.606 181.727, 255.807 181.526 C 256.007 181.326, 255.619 177.738, 254.944 173.553 C 253.745 166.122, 253.599 165.851, 248.671 161.927 C 245.895 159.717, 243.009 157.030, 242.256 155.955 C 240.465 153.399, 240.015 153.523, 236.730 157.483 M 302 158.613 C 298.975 161.125, 296.201 163.478, 295.835 163.841 C 294.520 165.144, 293.091 181.438, 294.230 182.142 C 296.426 183.499, 305.758 184.065, 310.059 183.101 C 316.397 181.681, 319.407 177.950, 318.549 172.578 C 317.850 168.207, 314.755 162.481, 310.276 157.272 L 307.500 154.044 302 158.613 M 284.795 170.987 C 280.557 173.469, 277.070 175.801, 277.045 176.168 C 277.020 176.536, 279.977 177.828, 283.617 179.039 C 289.069 180.853, 290.381 181.001, 291.075 179.879 C 292.023 178.345, 293.405 168.588, 292.857 167.307 C 292.660 166.849, 289.033 168.505, 284.795 170.987 M 256.633 172.250 C 256.995 174.588, 257.665 177.515, 258.122 178.755 L 258.954 181.009 264.227 179.005 C 267.127 177.903, 269.613 177.001, 269.750 177.001 C 269.887 177, 270 176.646, 270 176.213 C 270 175.476, 257.742 168, 256.532 168 C 256.227 168, 256.272 169.912, 256.633 172.250 M 283.655 188.829 C 281.458 191.256, 281.561 194.293, 283.912 196.420 C 286.637 198.886, 291.093 198.116, 292.909 194.865 C 294.227 192.505, 294.202 191.958, 292.667 189.615 C 290.610 186.476, 286.138 186.085, 283.655 188.829" stroke="none" fill="#131313" fill-rule="evenodd"/><path d="M 261 51.596 C 241.840 55.151, 229.320 59.867, 216.784 68.252 C 194.270 83.311, 177.900 106.591, 170.902 133.500 C 168.921 141.120, 168.562 144.954, 168.562 158.500 C 168.562 172.013, 168.922 175.882, 170.882 183.394 C 174.070 195.616, 177.514 203.703, 185.328 217.312 C 188.998 223.703, 192 229.230, 192 229.595 C 192 229.960, 197.776 240.438, 204.837 252.879 C 211.897 265.321, 223.215 285.400, 229.989 297.500 C 236.763 309.600, 247.578 328.725, 254.023 340 C 260.468 351.275, 267.156 363.313, 268.885 366.750 C 270.614 370.188, 272.585 372.996, 273.264 372.990 C 273.944 372.985, 278.960 364.997, 284.411 355.240 C 289.862 345.483, 299.817 327.825, 306.532 316 C 313.247 304.175, 319.765 292.475, 321.016 290 C 322.267 287.525, 328.175 277.105, 334.145 266.844 C 340.115 256.583, 345 247.999, 345 247.769 C 345 247.285, 354.717 229.773, 360.686 219.500 C 369.329 204.624, 374.336 191.662, 377.102 177 C 378.846 167.757, 378.540 146.069, 376.546 137.500 C 371.180 114.442, 364.618 101.504, 350.375 85.897 C 330.006 63.578, 305.892 52.352, 276.500 51.506 C 269.350 51.301, 262.375 51.341, 261 51.596 M 257 77.488 C 248.301 79.435, 233.381 86.937, 226.015 93.067 C 199.587 115.061, 191.379 153.903, 206.440 185.694 C 219.740 213.768, 247.305 230.418, 277.506 228.621 C 299.907 227.289, 321.100 215.330, 334.607 196.402 C 340.659 187.921, 343.652 180.951, 345.981 169.917 C 351.091 145.705, 345.835 121.277, 331.838 104.188 C 321.769 91.894, 308.841 83.121, 294 78.510 C 286.355 76.135, 265.605 75.562, 257 77.488 M 302.762 183.707 C 304.006 183.946, 305.806 183.937, 306.762 183.687 C 307.718 183.437, 306.700 183.241, 304.500 183.252 C 302.300 183.263, 301.518 183.468, 302.762 183.707" stroke="none" fill="#0699bf" fill-rule="evenodd"/></svg>